# xmcd
#
# Track frame offsets: 
#        150
#        15905
#        33037
#        50620
#        68387
#        83787
#        100350
#        116405
#        132522
#        151245
#
# Disc length: 2231 seconds
#
# Revision: 4
# Processed by: cddbd v1.5.2PL0 Copyright (c) Steve Scherf et al.
# Submitted via: ExactAudioCopy v1.3
#
DISCID=6e08b50a
DTITLE=Daniel Powter - Daniel Powter
DYEAR=2005
DGENRE=Pop
TTITLE0=Song 6
TTITLE1=Free Loop
TTITLE2=Bad Day
TTITLE3=Suspect
TTITLE4=Lie to Me
TTITLE5=Jimmy Gets High
TTITLE6=Styrofoam
TTITLE7=Hollywood
TTITLE8=Lost on the Stoop
TTITLE9=Give Me Life
EXTD=Location:  - UPC: 093624933229 - Catalogue number: 9362 49332-2 - La
EXTD=bel: Warner Bros. Records - ASIN: B0009F2BTO - Release Date: 2005 0
EXTD=8 08 - Discogs: a385971,m135157,r1862179 - MUSICBRAINZ_ALBUMID: f20
EXTD=d0b80-be1c-4a23-8c7f-0a6612537160 - AMG:P702418,R829872;
EXTT0=
EXTT1=
EXTT2=
EXTT3=
EXTT4=
EXTT5=
EXTT6=
EXTT7=
EXTT8=
EXTT9=
PLAYORDER=
